<svg width="474" height="230" viewBox="0 0 474 230" fill="none" xmlns="http://www.w3.org/2000/svg">
<path d="M0 37.1544V165.661H35.2959V98.3008C35.2959 85.2099 37.4501 75.8473 41.7586 70.2132C46.067 64.4134 53.0268 61.5135 62.6379 61.5135C71.089 61.5135 76.9717 64.1649 80.2858 69.4676C83.6 74.6045 85.2571 82.4757 85.2571 93.081V145.661C85.2571 156.707 94.2114 165.661 105.257 165.661H120.553V86.6184C120.553 78.6644 119.807 71.4561 118.316 64.9934C116.99 58.3651 114.588 52.8138 111.108 48.3397C107.628 43.6999 102.822 40.1371 96.691 37.6515C90.7255 35.0002 83.02 33.6745 73.5746 33.6745C66.1177 33.6745 58.8266 35.4144 51.7011 38.8943C44.5756 42.2085 38.7758 47.594 34.3017 55.0509H33.556C33.556 45.1669 25.5434 37.1544 15.6595 37.1544H0Z" fill="#AAB5BC"/>
<path d="M206.453 37.1544V165.661H241.749V98.3008C241.749 85.2099 243.903 75.8473 248.211 70.2132C252.52 64.4134 259.48 61.5135 269.091 61.5135C277.542 61.5135 283.424 64.1649 286.739 69.4676C290.053 74.6045 291.71 82.4757 291.71 93.081V145.661C291.71 156.707 300.664 165.661 311.71 165.661H327.006V86.6184C327.006 78.6644 326.26 71.4561 324.769 64.9934C323.443 58.3651 321.04 52.8138 317.56 48.3397C314.081 43.6999 309.275 40.1371 303.144 37.6515C297.178 35.0002 289.473 33.6745 280.027 33.6745C272.571 33.6745 265.279 35.4144 258.154 38.8943C251.028 42.2085 245.229 47.594 240.755 55.0509H240.009C240.009 45.1669 231.996 37.1544 222.112 37.1544H206.453Z" fill="#AAB5BC"/>
<path d="M437.809 87.6126H388.985C384.334 87.6126 380.698 83.6596 381.882 79.1615C382.876 76.0131 384.45 73.0303 386.605 70.2132C388.925 67.3962 391.907 65.0763 395.553 63.2535C399.364 61.265 404.087 60.2707 409.721 60.2707C418.338 60.2707 424.718 62.5906 428.86 67.2305C433.169 71.8703 436.152 78.6644 437.809 87.6126ZM380.391 109.983H473.105C473.767 100.041 472.939 90.5125 470.619 81.3986C468.299 72.2846 464.488 64.1649 459.185 57.0394C454.048 49.9139 447.42 44.2798 439.3 40.1371C431.18 35.8287 421.652 33.6745 410.715 33.6745C400.938 33.6745 391.99 35.4144 383.87 38.8943C375.916 42.3742 369.039 47.1797 363.24 53.311C357.44 59.2765 352.966 66.402 349.817 74.6874C346.669 82.9728 345.095 91.9211 345.095 101.532C345.095 111.475 346.586 120.589 349.569 128.874C352.717 137.16 357.108 144.285 362.743 150.25C368.377 156.216 375.254 160.856 383.373 164.17C391.493 167.318 400.607 168.893 410.715 168.893C425.298 168.893 437.726 165.579 448 158.95C458.274 152.322 465.896 141.302 470.867 125.891H447.297C442.853 125.891 439.004 128.994 436.061 132.323C434.557 134.024 432.654 135.691 430.352 137.325C425.215 140.805 419.084 142.545 411.958 142.545C402.016 142.545 394.393 139.977 389.09 134.84C383.788 129.703 380.888 121.417 380.391 109.983Z" fill="#AAB5BC"/>
<path d="M146 52.1291C146 46.5215 149.128 41.3821 154.109 38.8059L173.371 29.3977L173.864 29.1423L174.347 28.8695L174.832 28.5723L175.285 28.2714L177.098 26.8112L178.617 25.1663V25.1663C179.453 23.9519 180.196 22.676 180.839 21.3496L180.949 21.1221L181.662 18.7337L181.976 16.3719L182 14V156C182 161.523 177.523 166 172 166H146V52.1291Z" fill="#AAB5BC"/>
<path fill-rule="evenodd" clip-rule="evenodd" d="M166.5 31C175.06 31 182 24.0604 182 15.5C182 6.93959 175.06 0 166.5 0C157.94 0 151 6.93959 151 15.5C151 24.0604 157.94 31 166.5 31ZM166.5 22C170.09 22 173 19.0899 173 15.5C173 11.9101 170.09 9 166.5 9C162.91 9 160 11.9101 160 15.5C160 19.0899 162.91 22 166.5 22Z" fill="#AAB5BC"/>
<path d="M0.753906 229V206.664H10.3539C12.4232 206.664 14.0232 207.272 15.1539 208.488C16.2846 209.704 16.8499 211.336 16.8499 213.384C16.8499 215.432 16.2846 217.064 15.1539 218.28C14.0232 219.496 12.4232 220.104 10.3539 220.104H4.36991V229H0.753906ZM4.36991 216.936H10.1299C11.0472 216.936 11.7619 216.702 12.2739 216.232C12.7859 215.742 13.0419 215.048 13.0419 214.152V212.616C13.0419 211.72 12.7859 211.038 12.2739 210.568C11.7619 210.078 11.0472 209.832 10.1299 209.832H4.36991V216.936Z" fill="#AAB5BC"/>
<path d="M31.4724 229H27.8564V206.664H37.4884C39.4937 206.664 41.0724 207.272 42.2244 208.488C43.3764 209.683 43.9524 211.315 43.9524 213.384C43.9524 214.984 43.5791 216.318 42.8324 217.384C42.1071 218.43 41.0297 219.166 39.6004 219.592L44.4324 229H40.4004L35.9204 219.976H31.4724V229ZM37.2324 216.936C38.1497 216.936 38.8644 216.702 39.3764 216.232C39.8884 215.742 40.1444 215.048 40.1444 214.152V212.616C40.1444 211.72 39.8884 211.038 39.3764 210.568C38.8644 210.078 38.1497 209.832 37.2324 209.832H31.4724V216.936H37.2324Z" fill="#AAB5BC"/>
<path d="M55.8652 229V206.664H70.1692V209.864H59.4812V216.072H69.1772V219.272H59.4812V225.8H70.1692V229H55.8652Z" fill="#AAB5BC"/>
<path d="M98.9619 211.912H98.8019L97.0419 215.528L92.1459 224.456L87.2499 215.528L85.4899 211.912H85.3299V229H81.8739V206.664H86.1619L92.1459 218.024H92.3379L98.3219 206.664H102.418V229H98.9619V211.912Z" fill="#AAB5BC"/>
<path d="M114.016 229V226.056H117.056V209.608H114.016V206.664H123.744V209.608H120.672V226.056H123.744V229H114.016Z" fill="#AAB5BC"/>
<path d="M138.753 206.664V220.424C138.753 222.323 139.116 223.752 139.841 224.712C140.566 225.672 141.804 226.152 143.553 226.152C145.302 226.152 146.54 225.672 147.265 224.712C147.99 223.752 148.353 222.323 148.353 220.424V206.664H151.905V219.848C151.905 221.491 151.756 222.91 151.457 224.104C151.158 225.299 150.678 226.291 150.017 227.08C149.356 227.848 148.492 228.424 147.425 228.808C146.38 229.192 145.089 229.384 143.553 229.384C142.017 229.384 140.716 229.192 139.649 228.808C138.604 228.424 137.75 227.848 137.089 227.08C136.428 226.291 135.948 225.299 135.649 224.104C135.35 222.91 135.201 221.491 135.201 219.848V206.664H138.753Z" fill="#AAB5BC"/>
<path d="M181.394 211.912H181.234L179.474 215.528L174.578 224.456L169.682 215.528L167.922 211.912H167.762V229H164.306V206.664H168.594L174.578 218.024H174.77L180.754 206.664H184.85V229H181.394V211.912Z" fill="#AAB5BC"/>
<path d="M215.627 229H212.011V206.664H221.643C223.649 206.664 225.227 207.272 226.379 208.488C227.531 209.683 228.107 211.315 228.107 213.384C228.107 214.984 227.734 216.318 226.987 217.384C226.262 218.43 225.185 219.166 223.755 219.592L228.587 229H224.555L220.075 219.976H215.627V229ZM221.387 216.936C222.305 216.936 223.019 216.702 223.531 216.232C224.043 215.742 224.299 215.048 224.299 214.152V212.616C224.299 211.72 224.043 211.038 223.531 210.568C223.019 210.078 222.305 209.832 221.387 209.832H215.627V216.936H221.387Z" fill="#AAB5BC"/>
<path d="M240.02 229V206.664H254.324V209.864H243.636V216.072H253.332V219.272H243.636V225.8H254.324V229H240.02Z" fill="#AAB5BC"/>
<path d="M279.981 229L277.965 222.952H269.613L267.661 229H263.981L271.597 206.664H276.141L283.757 229H279.981ZM273.869 209.992H273.709L270.477 219.848H277.069L273.869 209.992Z" fill="#AAB5BC"/>
<path d="M294.256 229V206.664H297.872V225.8H306.96V229H294.256Z" fill="#AAB5BC"/>
<path d="M332.305 229V206.664H346.609V209.864H335.921V216.072H345.617V219.272H335.921V225.8H346.609V229H332.305Z" fill="#AAB5BC"/>
<path d="M365.002 229.384C363.125 229.384 361.525 229.043 360.202 228.36C358.901 227.678 357.781 226.76 356.842 225.608L359.338 223.272C360.127 224.232 360.991 224.958 361.93 225.448C362.89 225.939 363.978 226.184 365.194 226.184C366.623 226.184 367.701 225.864 368.426 225.224C369.151 224.584 369.514 223.72 369.514 222.632C369.514 221.758 369.258 221.064 368.746 220.552C368.234 220.04 367.327 219.656 366.026 219.4L364.042 219.048C361.866 218.643 360.234 217.928 359.146 216.904C358.058 215.88 357.514 214.472 357.514 212.68C357.514 211.699 357.695 210.814 358.058 210.024C358.442 209.214 358.965 208.542 359.626 208.008C360.309 207.454 361.13 207.027 362.09 206.728C363.05 206.43 364.127 206.28 365.322 206.28C367.007 206.28 368.469 206.579 369.706 207.176C370.943 207.752 371.999 208.595 372.874 209.704L370.346 211.944C369.77 211.198 369.066 210.6 368.234 210.152C367.402 209.704 366.367 209.48 365.13 209.48C363.85 209.48 362.858 209.736 362.154 210.248C361.45 210.76 361.098 211.507 361.098 212.488C361.098 213.427 361.386 214.131 361.962 214.6C362.538 215.048 363.434 215.39 364.65 215.624L366.634 216.04C368.874 216.467 370.506 217.192 371.53 218.216C372.575 219.24 373.098 220.648 373.098 222.44C373.098 223.486 372.917 224.435 372.554 225.288C372.191 226.142 371.658 226.878 370.954 227.496C370.271 228.094 369.429 228.563 368.426 228.904C367.423 229.224 366.282 229.384 365.002 229.384Z" fill="#AAB5BC"/>
<path d="M392.236 209.864V229H388.62V209.864H381.964V206.664H398.892V209.864H392.236Z" fill="#AAB5BC"/>
<path d="M421.315 229L419.299 222.952H410.947L408.995 229H405.315L412.931 206.664H417.475L425.091 229H421.315ZM415.203 209.992H415.043L411.811 219.848H418.403L415.203 209.992Z" fill="#AAB5BC"/>
<path d="M441.784 209.864V229H438.168V209.864H431.512V206.664H448.44V209.864H441.784Z" fill="#AAB5BC"/>
<path d="M459.005 229V206.664H473.309V209.864H462.621V216.072H472.317V219.272H462.621V225.8H473.309V229H459.005Z" fill="#AAB5BC"/>
</svg>
